<!DOCTYPE svg PUBLIC "-//W3C//DTD SVG 1.1//EN" "http://www.w3.org/Graphics/SVG/1.1/DTD/svg11.dtd">
<!-- Uploaded to: SVG Repo, www.svgrepo.com, Transformed by: SVG Repo Mixer Tools -->
<svg width="800px" height="800px" viewBox="0 0 24 24" fill="none" xmlns="http://www.w3.org/2000/svg">
<g id="SVGRepo_bgCarrier" stroke-width="0"/>
<g id="SVGRepo_tracerCarrier" stroke-linecap="round" stroke-linejoin="round"/>
<g id="SVGRepo_iconCarrier"> <path d="M17 5H18C19.1046 5 20 5.89543 20 7V9C20 10.1046 19.1046 11 18 11H12M12 11H11C10.4477 11 10 11.4477 10 12V20C10 20.5523 10.4477 21 11 21V21C11.5523 21 12 20.5523 12 20V11ZM6 7H16C16.5523 7 17 6.55228 17 6V4C17 3.44772 16.5523 3 16 3H6C5.44772 3 5 3.44772 5 4V6C5 6.55228 5.44772 7 6 7Z" stroke="#e69914" stroke-width="2" stroke-linecap="round" stroke-linejoin="round"/> </g>
</svg>